<svg xmlns="http://www.w3.org/2000/svg" viewBox="0 0 900 600" class="rounded-sm" style=" border-radius: 8px; box-shadow: rgba(0, 0, 0, 0.15) 0px 2px 0px; max-width: 100%; max-height: 100%; width: auto; height: auto; aspect-ratio: 900 / 600; user-select: none; cursor: default;" tabindex="0" width="900" height="600"><rect width="900" height="600" fill="rgb(254, 252, 232)"/><defs/><g transform="translate(50, 50)" style="transition:transform 0.15s cubic-bezier(0.2, 0.8, 0.2, 1)"><g style="cursor:move"><g><defs><clipPath id="avatar-clip-0-0"><circle cx="60" cy="60" r="60"/></clipPath></defs><circle cx="60" cy="60" r="60" fill="#e5e7eb" stroke="#d1d5db" stroke-width="2"/><image href="https://avatars.githubusercontent.com/u/68924072?u=1354ad9b17dc9e5aa688b0d5b9cc497722183187&amp;v=4" x="0" y="0" width="120" height="120" clip-path="url(#avatar-clip-0-0)" preserveAspectRatio="xMidYMid slice"/></g></g></g><g transform="translate(200, 60)" style="transition: transform 0.15s cubic-bezier(0.2, 0.8, 0.2, 1);"><g style="cursor: move;"><g><defs><clipPath id="bio-clip-0-0-650-120"><rect width="650" height="120" rx="8"/></clipPath></defs><rect width="650" height="120" fill="transparent" stroke="#e5e7eb" stroke-width="0" rx="8"/><g clip-path="url(#bio-clip-0-0-650-120)"><text x="16" y="35" font-size="19" style="font-weight: 500;" fill="#111827">Jonathan Kanaiya</text><text x="16" y="53" font-size="15" fill="#111827" opacity="0.8">@JKanaiya</text><text x="16" y="72" font-size="16" fill="#111827" opacity="0.8"><tspan>No bio available</tspan></text></g></g></g></g><g transform="translate(50, 200)" style="transition: transform 0.15s cubic-bezier(0.2, 0.8, 0.2, 1);"><g style="cursor: move;"><g><rect width="800" height="100" fill="transparent" stroke="none" rx="8"/><g transform="translate(0, 0)"><g transform="translate(121.33333333333334, 16.000000000000004)"><svg width="24" height="24" viewBox="0 0 24 24" fill="#111827"><path d="M4,2H14L20,8V20A2,2 0 0,1 18,22H6A2,2 0 0,1 4,20V4A2,2 0 0,1 6,2H4M6,4V20H18V9H13V4H6M8,12V14H16V12H8M8,16V18H13V16H8Z"/></svg></g><text x="133.33333333333334" y="60" text-anchor="middle" font-size="16" font-weight="400" fill="#111827">42</text><text x="133.33333333333334" y="80" text-anchor="middle" font-size="10" fill="#6b7280">Repos</text></g><g transform="translate(266.6666666666667, 0)"><g transform="translate(121.33333333333334, 16.000000000000004)"><svg width="24" height="24" viewBox="0 0 24 24" fill="#111827"><path d="M16,13C15.71,13 15.38,13 15.03,13.05C16.19,13.89 17,15 17,16.5V19H23V16.5C23,14.17 18.33,13 16,13M8,13C5.67,13 1,14.17 1,16.5V19H15V16.5C15,14.17 10.33,13 8,13M8,11A3,3 0 0,0 11,8A3,3 0 0,0 8,5A3,3 0 0,0 5,8A3,3 0 0,0 8,11M16,11A3,3 0 0,0 19,8A3,3 0 0,0 16,5A3,3 0 0,0 13,8A3,3 0 0,0 16,11Z"/></svg></g><text x="133.33333333333334" y="60" text-anchor="middle" font-size="16" font-weight="400" fill="#111827">4</text><text x="133.33333333333334" y="80" text-anchor="middle" font-size="10" fill="#6b7280">Followers</text></g><g transform="translate(533.3333333333334, 0)"><g transform="translate(121.33333333333334, 16.000000000000004)"><svg width="24" height="24" viewBox="0 0 24 24" fill="#111827"><path d="M16,13C15.71,13 15.38,13 15.03,13.05C16.19,13.89 17,15 17,16.5V19H23V16.5C23,14.17 18.33,13 16,13M8,13C5.67,13 1,14.17 1,16.5V19H15V16.5C15,14.17 10.33,13 8,13M8,11A3,3 0 0,0 11,8A3,3 0 0,0 8,5A3,3 0 0,0 5,8A3,3 0 0,0 8,11M16,11A3,3 0 0,0 19,8A3,3 0 0,0 16,5A3,3 0 0,0 13,8A3,3 0 0,0 16,11Z"/></svg></g><text x="133.33333333333334" y="60" text-anchor="middle" font-size="16" font-weight="400" fill="#111827">4</text><text x="133.33333333333334" y="80" text-anchor="middle" font-size="10" fill="#6b7280">Following</text></g></g></g></g><g transform="translate(61.608489990234375, 319.08953857421875)" style="transition: transform 0.15s cubic-bezier(0.2, 0.8, 0.2, 1);"><g style="cursor: move;"><g><rect width="500" height="240" fill="transparent" rx="8"/><g><path d="M 140 10 A 110 110 0 1 1 37.724586552292365 79.50629920468538 L 78.63475193137542 95.70377952281123 A 66 66 0 1 0 140 54 Z" fill="#f1e05a" stroke="#ffffff" stroke-width="2"/><path d="M 37.724586552292365 79.50629920468538 A 110 110 0 0 1 69.88336112764415 35.24354329466317 L 97.93001667658649 69.1461259767979 A 66 66 0 0 0 78.63475193137542 95.70377952281123 Z" fill="#b07219" stroke="#ffffff" stroke-width="2"/><path d="M 69.88336112764415 35.24354329466317 A 110 110 0 0 1 106.00813061875577 15.383783207533114 L 119.60487837125346 57.23026992451987 A 66 66 0 0 0 97.93001667658649 69.1461259767979 Z" fill="#663399" stroke="#ffffff" stroke-width="2"/><path d="M 106.00813061875577 15.383783207533114 A 110 110 0 0 1 126.21334430792659 10.867382855407428 L 131.72800658475595 54.520429713244454 A 66 66 0 0 0 119.60487837125346 57.23026992451987 Z" fill="#00B4AB" stroke="#ffffff" stroke-width="2"/><path d="M 126.21334430792659 10.867382855407428 A 110 110 0 0 1 146.9069571482245 10.217059872890133 L 144.1441742889347 54.13023592373408 A 66 66 0 0 0 131.72800658475595 54.520429713244454 Z" fill="#e34c26" stroke="#ffffff" stroke-width="2"/></g><g><g><rect x="280" y="52" width="16" height="16" fill="#f1e05a" rx="2"/><text x="304" y="64" font-size="14" fill="#111827" style="font-weight: 500;" dominant-baseline="middle">JavaScript</text><text x="400" y="64" font-size="13" fill="#111827" style="font-weight: 600;" opacity="0.9" dominant-baseline="middle">81%</text></g><g><rect x="280" y="80" width="16" height="16" fill="#b07219" rx="2"/><text x="304" y="92" font-size="14" fill="#111827" style="font-weight: 500;" dominant-baseline="middle">Java</text><text x="400" y="92" font-size="13" fill="#111827" style="font-weight: 600;" opacity="0.9" dominant-baseline="middle">8%</text></g><g><rect x="280" y="108" width="16" height="16" fill="#663399" rx="2"/><text x="304" y="120" font-size="14" fill="#111827" style="font-weight: 500;" dominant-baseline="middle">CSS</text><text x="400" y="120" font-size="13" fill="#111827" style="font-weight: 600;" opacity="0.9" dominant-baseline="middle">6%</text></g><g><rect x="280" y="136" width="16" height="16" fill="#00B4AB" rx="2"/><text x="304" y="148" font-size="14" fill="#111827" style="font-weight: 500;" dominant-baseline="middle">Dart</text><text x="400" y="148" font-size="13" fill="#111827" style="font-weight: 600;" opacity="0.9" dominant-baseline="middle">3%</text></g><g><rect x="280" y="164" width="16" height="16" fill="#e34c26" rx="2"/><text x="304" y="176" font-size="14" fill="#111827" style="font-weight: 500;" dominant-baseline="middle">HTML</text><text x="400" y="176" font-size="13" fill="#111827" style="font-weight: 600;" opacity="0.9" dominant-baseline="middle">3%</text></g></g></g></g></g></svg>